<svg width="32" height="26" viewBox="0 0 32 26" fill="none" xmlns="http://www.w3.org/2000/svg">
<path d="M6.21996 18.6322C5.42515 18.0401 4.79151 17.2643 4.36996 16.3763C5.145 16.4291 5.92554 16.3519 6.67882 16.1457L6.64442 15.1731C4.11563 14.6699 2.15058 12.5733 1.83062 9.97228C2.57872 10.2622 3.39793 10.4426 4.26769 10.4426H5.96191L4.53916 9.52276C2.90686 8.46739 1.84608 6.60614 1.84608 4.49713C1.84608 3.65036 2.02106 2.83807 2.33817 2.10478C5.64248 5.84597 10.4086 8.29149 15.73 8.56055L16.3881 8.59382L16.243 7.95106C16.1436 7.51104 16.087 7.0432 16.087 6.56214C16.087 3.21152 18.8016 0.5 22.1185 0.5C23.9082 0.5 25.4718 1.2078 26.584 2.41856L26.7757 2.62722L27.0532 2.57001C28.0991 2.35435 29.1105 2.02806 30.0667 1.59033C29.5527 2.45226 28.8326 3.17239 27.9791 3.68641L28.3005 4.61068C29.068 4.51252 29.8214 4.35389 30.5523 4.13444C29.9206 4.85987 29.2125 5.5088 28.436 6.0635L28.2129 6.22285L28.2273 6.49664C28.2418 6.77208 28.2419 7.03451 28.2419 7.32696C28.2419 15.7846 21.7853 25.5038 10.065 25.5038C7.19072 25.5038 4.46854 24.8312 2.04886 23.6369C4.94666 23.5457 7.74362 22.5258 10.0235 20.7209L11.1181 19.8544L9.72231 19.829C8.45847 19.8059 7.23363 19.3874 6.21996 18.6322ZM1.55782 23.6434C1.55822 23.6434 1.55862 23.6434 1.55902 23.6434L1.55906 23.3858L1.55782 23.6434Z" fill="white" stroke="white"/>
</svg>
