<svg width="128" height="128" viewBox="0 0 128 128" fill="none" xmlns="http://www.w3.org/2000/svg">
<path d="M36.5625 7.42857V119.429H12.5625V7.42857H36.5625ZM13.0425 107.749V119.429H0.242493V117.829C0.242493 117.829 0.562494 117.829 1.20249 117.829C1.94916 117.829 2.32249 117.829 2.32249 117.829C5.09583 117.829 7.4425 116.869 9.3625 114.949C11.3892 112.922 12.4558 110.522 12.5625 107.749H13.0425ZM13.0425 19.1086H12.5625C12.4558 16.3352 11.3892 13.9886 9.3625 12.0686C7.4425 10.0419 5.09583 9.02857 2.32249 9.02857C2.32249 9.02857 1.94916 9.02857 1.20249 9.02857C0.562494 9.02857 0.242493 9.02857 0.242493 9.02857V7.42857H13.0425V19.1086ZM36.0825 107.749H36.5625C36.6692 110.522 37.6825 112.922 39.6025 114.949C41.6292 116.869 44.0292 117.829 46.8025 117.829C46.8025 117.829 47.1225 117.829 47.7625 117.829C48.4025 117.829 48.7758 117.829 48.8825 117.829V119.429H36.0825V107.749ZM36.0825 19.1086V7.42857H48.8825V9.02857C48.7758 9.02857 48.4025 9.02857 47.7625 9.02857C47.1225 9.02857 46.8025 9.02857 46.8025 9.02857C44.0292 9.02857 41.6292 10.0419 39.6025 12.0686C37.6825 13.9886 36.6692 16.3352 36.5625 19.1086H36.0825Z" fill="white"/>
<path d="M77.6146 0V128H50.1861V0H77.6146ZM50.7346 114.651V128H36.1061V126.171C36.1061 126.171 36.4718 126.171 37.2032 126.171C38.0565 126.171 38.4832 126.171 38.4832 126.171C41.6527 126.171 44.3346 125.074 46.5289 122.88C48.8451 120.564 50.0642 117.821 50.1861 114.651H50.7346ZM50.7346 13.3486H50.1861C50.0642 10.179 48.8451 7.49714 46.5289 5.30287C44.3346 2.98667 41.6527 1.82857 38.4832 1.82857C38.4832 1.82857 38.0565 1.82857 37.2032 1.82857C36.4718 1.82857 36.1061 1.82857 36.1061 1.82857V0H50.7346V13.3486ZM77.0661 114.651H77.6146C77.7365 117.821 78.8946 120.564 81.0889 122.88C83.4051 125.074 86.148 126.171 89.3175 126.171C89.3175 126.171 89.6832 126.171 90.4146 126.171C91.1461 126.171 91.5727 126.171 91.6946 126.171V128H77.0661V114.651ZM77.0661 13.3486V0H91.6946V1.82857C91.5727 1.82857 91.1461 1.82857 90.4146 1.82857C89.6832 1.82857 89.3175 1.82857 89.3175 1.82857C86.148 1.82857 83.4051 2.98667 81.0889 5.30287C78.8946 7.49714 77.7365 10.179 77.6146 13.3486H77.0661Z" fill="white"/>
<path d="M115.437 7.42857V119.429H91.4375V7.42857H115.437ZM91.9175 107.749V119.429H48.8825V117.829C48.8825 117.829 79.4375 117.829 80.0775 117.829C80.8242 117.829 81.1975 117.829 81.1975 117.829C83.9708 117.829 86.3175 116.869 88.2375 114.949C90.2642 112.922 91.3308 110.522 91.4375 107.749H91.9175ZM91.9175 19.1086H91.4375C91.3308 16.3352 90.2642 13.9886 88.2375 12.0686C86.3175 10.0419 83.9708 9.02857 81.1975 9.02857C81.1975 9.02857 80.8242 9.02857 80.0775 9.02857C79.4375 9.02857 48.8825 9.02857 48.8825 9.02857V7.42857H91.9175V19.1086ZM114.957 107.749H115.437C115.544 110.522 116.557 112.922 118.477 114.949C120.504 116.869 122.904 117.829 125.677 117.829C125.677 117.829 125.997 117.829 126.637 117.829C127.277 117.829 127.651 117.829 127.757 117.829V119.429H114.957V107.749ZM114.957 19.1086V7.42857H127.757V9.02857C127.651 9.02857 127.277 9.02857 126.637 9.02857C125.997 9.02857 125.677 9.02857 125.677 9.02857C122.904 9.02857 120.504 10.0419 118.477 12.0686C116.557 13.9886 115.544 16.3352 115.437 19.1086H114.957Z" fill="white"/>
</svg>
