<svg width="27" height="20" viewBox="0 0 27 20" fill="none" xmlns="http://www.w3.org/2000/svg">
<path d="M0.5 4C0.5 3.04306 0.501062 2.37565 0.568765 1.87208C0.634534 1.3829 0.754831 1.12385 0.93934 0.93934C1.12385 0.754831 1.3829 0.634534 1.87208 0.568765C2.37565 0.501062 3.04306 0.5 4 0.5H22.6667C23.6236 0.5 24.291 0.501062 24.7946 0.568765C25.2838 0.634534 25.5428 0.754831 25.7273 0.93934C25.9118 1.12385 26.0321 1.3829 26.0979 1.87208C26.1656 2.37565 26.1667 3.04306 26.1667 4V16C26.1667 16.9569 26.1656 17.6244 26.0979 18.1279C26.0321 18.6171 25.9118 18.8762 25.7273 19.0607C25.5428 19.2452 25.2838 19.3655 24.7946 19.4312C24.291 19.4989 23.6236 19.5 22.6667 19.5H4C3.04305 19.5 2.37565 19.4989 1.87208 19.4312C1.3829 19.3655 1.12385 19.2452 0.93934 19.0607C0.754831 18.8762 0.634534 18.6171 0.568765 18.1279C0.501062 17.6244 0.5 16.9569 0.5 16V4Z" fill="white" stroke="#1E1E1E"/>
</svg>
