<svg width="390" height="157" viewBox="0 0 390 157" fill="none" xmlns="http://www.w3.org/2000/svg">
<path d="M58.3962 115.205C56.1097 117.625 52.3985 117.625 50.106 115.205C47.8195 112.791 47.8195 108.866 50.106 106.453C52.3926 104.032 56.1038 104.032 58.3962 106.453C60.6886 108.866 60.6886 112.784 58.3962 115.205Z" fill="#FCF3F5"/>
<path fill-rule="evenodd" clip-rule="evenodd" d="M223.364 137.792C224.335 128.445 232.701 121.663 242.052 122.642C251.403 123.621 258.195 131.99 257.224 141.336C256.253 150.683 247.886 157.465 238.536 156.487C229.185 155.508 222.393 147.139 223.364 137.792ZM264.584 142.415C264.932 139.016 267.974 136.55 271.379 136.906C274.774 137.262 277.247 140.31 276.895 143.704C276.546 147.102 273.504 149.568 270.1 149.212C266.7 148.86 264.23 145.818 264.584 142.415Z" fill="#FCF3F5"/>
<path d="M127.092 123.979C127.534 119.732 131.339 116.647 135.588 117.092C139.837 117.537 142.927 121.344 142.485 125.591C142.044 129.838 138.238 132.923 133.99 132.478C129.741 132.033 126.651 128.226 127.092 123.979Z" fill="#FCF3F5"/>
<path d="M327.889 82.7579C328.33 78.511 332.136 75.4256 336.385 75.8704C340.634 76.3152 343.724 80.1224 343.282 84.3693C342.841 88.6162 339.035 91.7015 334.787 91.2567C330.538 90.8119 327.448 87.0048 327.889 82.7579Z" fill="#FCF3F5"/>
<path fill-rule="evenodd" clip-rule="evenodd" d="M35.8519 106.453C20.4777 118.198 0 140.64 0 140.64V-1.52588e-05H389.999V73.3104C390.087 80.3135 379.845 93.8834 382.079 109.963C384.314 126.043 358.645 102.614 353.642 85.6896C348.868 69.5411 324.505 64.1292 315.149 77.1583C300.806 97.1337 359.431 102.854 361.868 124.791C364.306 146.729 325.421 130.328 316.353 134.295C311.098 136.594 306.603 138.561 304.136 138.906C289.846 140.91 279.883 133.777 269.558 126.386C265.815 123.707 262.025 120.993 257.964 118.668C238.297 107.413 227.693 115.204 213.758 125.441C210.69 127.694 207.461 130.067 203.939 132.38C188.844 142.298 167.128 148.347 153.631 131.952C150.192 127.773 149.055 122.647 148.008 117.931C146.375 110.575 144.963 104.217 135.386 104.002C128.161 103.84 122.051 107.727 115.954 113.149C109.391 117.817 101.467 120.074 93.9889 118.894C88.2871 117.994 83.0886 113.963 77.6604 109.754C66.6841 101.241 54.7683 92.0007 35.8519 106.453ZM293.062 133.115C289.339 132.228 286.073 130.549 282.754 128.689C281.752 128.128 280.729 127.606 279.707 127.085C279.033 126.741 278.359 126.398 277.691 126.043C276.774 125.554 275.902 124.996 275.03 124.438C274.153 123.877 273.277 123.317 272.357 122.828C271.923 122.597 271.886 122.11 272.053 121.775C272.12 121.426 272.403 121.117 272.852 121.16C274.603 121.334 276.2 121.545 277.787 122.323C278.787 122.813 279.742 123.402 280.695 123.989C281.242 124.327 281.789 124.664 282.343 124.981C285.673 126.896 289.236 127.801 293.029 128.273C296.34 128.681 299.717 128.956 303.05 129.107C303.269 129.117 303.495 129.124 303.725 129.132C305.572 129.194 307.72 129.266 308.937 130.774C309.111 130.999 309.127 131.441 308.916 131.652C304.962 135.614 297.962 134.283 293.062 133.115ZM219.143 113.017C218.338 114.881 215.699 116.263 213.715 115.703C211.445 115.066 211.396 112.531 212.507 110.857C213.362 109.574 215.147 108.574 216.686 108.497C218.147 108.421 219.36 109.573 219.339 111.009C219.475 111.688 219.409 112.411 219.143 113.017ZM166.608 132.717C162.478 131.77 158.901 128.708 157.904 124.495C157.017 120.752 158.638 116.8 162.438 115.552C165.911 114.42 169.917 115.182 173.555 115.874C174.239 116.005 174.911 116.132 175.563 116.245C176.399 116.388 177.238 116.538 178.078 116.688C182.805 117.533 187.597 118.39 192.391 118.279C194.87 118.222 197.432 117.962 199.762 117.093C200.391 116.859 201.005 116.557 201.62 116.255C202.994 115.579 204.373 114.902 205.941 114.969C207.75 115.048 209.515 116.575 208.74 118.438C208.684 118.85 208.493 119.252 208.127 119.596C207.692 120.001 207.258 120.409 206.824 120.818L206.822 120.82L206.818 120.824C203.572 123.874 200.293 126.956 196.411 129.182C192.2 131.6 187.489 133.06 182.665 133.575C180.173 133.842 177.661 133.839 175.165 133.67C174.811 133.646 174.453 133.622 174.093 133.599C171.604 133.437 168.996 133.267 166.608 132.717Z" fill="#FCF3F5"/>
</svg>
