<svg width="390" height="553" viewBox="0 0 390 553" fill="none" xmlns="http://www.w3.org/2000/svg">
<g opacity="0.6">
<path fill-rule="evenodd" clip-rule="evenodd" d="M91.3207 72.8345C85.0239 79.7751 74.8165 79.7751 68.5197 72.8345C62.2229 65.8939 62.2229 54.6429 68.5197 47.7023C74.8165 40.7618 85.0239 40.7618 91.3207 47.7023C97.6175 54.6429 97.6175 65.8939 91.3207 72.8345Z" fill="#FAEEEB"/>
<path d="M293.808 12.0698C293.367 16.5039 289.561 19.7252 285.312 19.2608C281.063 18.7964 277.974 14.8214 278.415 10.3873C278.856 5.95325 282.662 2.73199 286.911 3.19635C291.159 3.66071 294.249 7.63574 293.808 12.0698Z" fill="#FAEEEB"/>
<path d="M184.164 16.6146C184.97 14.6681 187.609 13.2252 189.592 13.8094C191.863 14.4755 191.912 17.1216 190.801 18.8693C189.946 20.2087 188.161 21.2535 186.621 21.3333C185.161 21.4125 183.947 20.2098 183.969 18.7104C183.833 18.002 183.899 17.2469 184.164 16.6146Z" fill="#FAEEEB"/>
<path fill-rule="evenodd" clip-rule="evenodd" d="M274.459 21.9641C274.11 25.5128 271.068 28.0873 267.664 27.7153C264.269 27.3441 261.795 24.1622 262.148 20.6185C262.497 17.0699 265.538 14.4953 268.943 14.8674C272.343 15.2344 274.812 18.4114 274.459 21.9641Z" fill="#FAEEEB"/>
<path d="M377.813 36.0882C382.061 36.5526 385.867 33.3312 386.308 28.8972C386.75 24.4631 383.66 20.488 379.411 20.0237C375.162 19.5593 371.356 22.7806 370.915 27.2147C370.474 31.6488 373.564 35.6238 377.813 36.0882Z" fill="#FAEEEB"/>
<path fill-rule="evenodd" clip-rule="evenodd" d="M0 0.000549316C0 0.000549316 3.86956 3.4256 6.1737 4.82794C8.81936 6.43494 11.7798 7.27045 14.7529 8.10956C17.973 9.01837 21.2078 9.9314 24.0733 11.8332C35.786 19.6021 38.8582 31.9345 42.0419 44.7148C43.1961 49.348 44.365 54.04 45.9655 58.5948C55.4224 85.5041 78.2276 93.8976 94.8773 80.3404C108.685 69.0972 110.282 47.7023 91.3207 31.1104C72.3594 14.5185 106.438 10.175 115.858 16.258C150.655 38.7287 156.799 34.9464 164.973 29.9144C169.071 27.3916 173.68 24.5546 182.665 24.5546C190.48 24.5546 192.505 21.5847 194.953 17.9932C197.38 14.4326 200.224 10.2613 209.539 7.76758C223.101 4.13678 233.242 12.0786 243.608 20.1978C247.543 23.2797 251.511 26.3873 255.711 28.8972C275.377 40.6484 285.982 32.5146 299.917 21.8262C302.984 19.4733 306.213 16.9966 309.736 14.5811C324.831 4.22601 346.547 -2.08948 360.043 15.0278C363.783 19.773 364.824 24.5759 365.744 28.8218C366.991 34.5716 368.016 39.2999 375.22 41.4804C383.514 43.9906 389.999 34.798 389.999 34.798V552.972H0V0.000549316ZM28.7636 23.8079C30.9739 26.9745 32.3752 30.4835 33.7061 34.1735C34.1085 35.2864 34.5495 36.3811 34.99 37.4748L34.9907 37.4764C35.2814 38.1982 35.5724 38.9205 35.8519 39.6472C36.2348 40.6459 36.5434 41.6719 36.8518 42.6973C37.1619 43.7285 37.4719 44.7593 37.857 45.7606C38.0388 46.2323 37.7749 46.6524 37.4525 46.8139C37.1945 47.053 36.8017 47.1177 36.4968 46.7881C35.3125 45.4956 34.2631 44.2742 33.5595 42.6005C33.1162 41.5453 32.7653 40.4405 32.4149 39.3375L32.4144 39.3362C32.2135 38.7036 32.0127 38.0716 31.7948 37.45C30.4873 33.7083 28.406 30.6321 25.8966 27.7564C23.7039 25.249 21.3822 22.8063 19.0194 20.4927C18.8645 20.3407 18.7029 20.1861 18.5378 20.0283C17.216 18.7641 15.6782 17.2934 15.6834 15.2711C15.6892 14.9739 15.9414 14.6055 16.2228 14.5732C21.4995 13.9592 25.8556 19.6397 28.7636 23.8079ZM220.612 13.8137C224.335 14.7396 227.602 16.4929 230.92 18.4354C231.859 18.9837 232.815 19.496 233.773 20.0057L233.964 20.1078L233.965 20.1084L233.966 20.1089L233.967 20.1094L234.094 20.1769C234.726 20.5134 235.357 20.8504 235.983 21.1978C236.9 21.7078 237.773 22.2906 238.644 22.873C239.521 23.4588 240.397 24.0441 241.317 24.5546C241.751 24.7949 241.789 25.3042 241.622 25.6534C241.555 26.0181 241.272 26.3408 240.823 26.2963C239.072 26.1141 237.475 25.8936 235.887 25.0818C234.887 24.5698 233.932 23.9547 232.979 23.3411C232.432 22.9892 231.886 22.6376 231.332 22.3059C228.001 20.3069 224.439 19.3619 220.646 18.8693C217.335 18.4431 213.957 18.1566 210.624 17.999C210.406 17.9883 210.181 17.9804 209.95 17.9724L209.949 17.9723C208.103 17.9075 205.954 17.8322 204.738 16.258C204.563 16.0231 204.548 15.5621 204.759 15.3417C208.713 11.2043 215.712 12.5939 220.612 13.8137ZM294.531 34.798C295.337 32.8515 297.975 31.4086 299.959 31.9928C302.23 32.6589 302.279 35.3049 301.167 37.0526C300.312 38.392 298.527 39.437 296.988 39.5167C295.528 39.5959 294.314 38.3932 294.336 36.8938C294.2 36.1854 294.266 35.4303 294.531 34.798ZM347.066 14.2294C351.197 15.2182 354.773 18.4152 355.77 22.8135C356.657 26.7223 355.037 30.8483 351.237 32.1506C347.764 33.3325 343.758 32.5369 340.12 31.8143C339.435 31.6784 338.764 31.545 338.111 31.4279C337.276 31.2777 336.439 31.1216 335.6 30.965L335.596 30.9644C330.87 30.0825 326.077 29.1883 321.284 29.3038C318.804 29.3635 316.243 29.6348 313.913 30.542C313.283 30.7868 312.669 31.1016 312.055 31.4169C310.68 32.1222 309.302 32.8297 307.733 32.7599C305.924 32.6769 304.16 31.0833 304.934 29.1381C304.99 28.7079 305.182 28.288 305.547 27.9285C305.984 27.5038 306.42 27.0763 306.856 26.6482L306.857 26.6472C310.102 23.4627 313.382 20.2448 317.263 17.9205C321.475 15.3957 326.186 13.8714 331.01 13.3332C333.502 13.0544 336.014 13.0581 338.509 13.2344C338.655 13.2448 338.802 13.2551 338.95 13.2653L339.174 13.2808L339.325 13.2912L339.422 13.2978L339.563 13.3073L339.573 13.308L339.581 13.3086L339.582 13.3087C342.07 13.478 344.679 13.6556 347.066 14.2294ZM184.164 38.424C183.723 42.858 179.917 46.0794 175.669 45.615C171.42 45.1506 168.33 41.1756 168.771 36.7415C169.212 32.3074 173.018 29.0862 177.267 29.5505C181.516 30.0149 184.606 33.9899 184.164 38.424ZM127.889 104.256C128.331 99.8216 132.136 96.6003 136.385 97.0647C140.634 97.5291 143.724 101.504 143.282 105.938C142.841 110.372 139.035 113.593 134.787 113.129C130.538 112.665 127.448 108.69 127.889 104.256Z" fill="#FAEEEB"/>
</g>
</svg>
