<svg width="128" height="128" viewBox="0 0 128 128" fill="none" xmlns="http://www.w3.org/2000/svg">
<g opacity="0.2">
<path d="M36.32 7.42857V119.429H12.32V7.42857H36.32ZM12.8 107.749V119.429H0V117.829C0 117.829 0.320002 117.829 0.960001 117.829C1.70667 117.829 2.08 117.829 2.08 117.829C4.85333 117.829 7.2 116.869 9.12 114.949C11.1467 112.922 12.2133 110.522 12.32 107.749H12.8ZM12.8 19.1086H12.32C12.2133 16.3352 11.1467 13.9886 9.12 12.0686C7.2 10.0419 4.85333 9.02857 2.08 9.02857C2.08 9.02857 1.70667 9.02857 0.960001 9.02857C0.320002 9.02857 0 9.02857 0 9.02857V7.42857H12.8V19.1086ZM35.84 107.749H36.32C36.4267 110.522 37.44 112.922 39.36 114.949C41.3867 116.869 43.7867 117.829 46.56 117.829C46.56 117.829 46.88 117.829 47.52 117.829C48.16 117.829 48.5333 117.829 48.64 117.829V119.429H35.84V107.749ZM35.84 19.1086V7.42857H48.64V9.02857C48.5333 9.02857 48.16 9.02857 47.52 9.02857C46.88 9.02857 46.56 9.02857 46.56 9.02857C43.7867 9.02857 41.3867 10.0419 39.36 12.0686C37.44 13.9886 36.4267 16.3352 36.32 19.1086H35.84Z" fill="#FAEEEB"/>
<path d="M77.3721 0V128H49.9436V0H77.3721ZM50.4921 114.651V128H35.8636V126.171C35.8636 126.171 36.2293 126.171 36.9607 126.171C37.814 126.171 38.2407 126.171 38.2407 126.171C41.4102 126.171 44.0921 125.074 46.2864 122.88C48.6026 120.564 49.8217 117.821 49.9436 114.651H50.4921ZM50.4921 13.3486H49.9436C49.8217 10.179 48.6026 7.49714 46.2864 5.30287C44.0921 2.98667 41.4102 1.82857 38.2407 1.82857C38.2407 1.82857 37.814 1.82857 36.9607 1.82857C36.2293 1.82857 35.8636 1.82857 35.8636 1.82857V0H50.4921V13.3486ZM76.8236 114.651H77.3721C77.494 117.821 78.6521 120.564 80.8464 122.88C83.1626 125.074 85.9055 126.171 89.075 126.171C89.075 126.171 89.4407 126.171 90.1721 126.171C90.9036 126.171 91.3302 126.171 91.4521 126.171V128H76.8236V114.651ZM76.8236 13.3486V0H91.4521V1.82857C91.3302 1.82857 90.9036 1.82857 90.1721 1.82857C89.4407 1.82857 89.075 1.82857 89.075 1.82857C85.9055 1.82857 83.1626 2.98667 80.8464 5.30287C78.6521 7.49714 77.494 10.179 77.3721 13.3486H76.8236Z" fill="#FAEEEB"/>
<path d="M115.195 7.42857V119.429H91.195V7.42857H115.195ZM91.675 107.749V119.429H48.64V117.829C48.64 117.829 79.195 117.829 79.835 117.829C80.5817 117.829 80.955 117.829 80.955 117.829C83.7283 117.829 86.075 116.869 87.995 114.949C90.0217 112.922 91.0883 110.522 91.195 107.749H91.675ZM91.675 19.1086H91.195C91.0883 16.3352 90.0217 13.9886 87.995 12.0686C86.075 10.0419 83.7283 9.02857 80.955 9.02857C80.955 9.02857 80.5817 9.02857 79.835 9.02857C79.195 9.02857 48.64 9.02857 48.64 9.02857V7.42857H91.675V19.1086ZM114.715 107.749H115.195C115.302 110.522 116.315 112.922 118.235 114.949C120.262 116.869 122.662 117.829 125.435 117.829C125.435 117.829 125.755 117.829 126.395 117.829C127.035 117.829 127.408 117.829 127.515 117.829V119.429H114.715V107.749ZM114.715 19.1086V7.42857H127.515V9.02857C127.408 9.02857 127.035 9.02857 126.395 9.02857C125.755 9.02857 125.435 9.02857 125.435 9.02857C122.662 9.02857 120.262 10.0419 118.235 12.0686C116.315 13.9886 115.302 16.3352 115.195 19.1086H114.715Z" fill="#FAEEEB"/>
</g>
</svg>
