<svg width="45" height="46" viewBox="0 0 45 46" fill="none" xmlns="http://www.w3.org/2000/svg">
<path d="M12.712 3.2V42.4H4.312V3.2H12.712ZM4.48 38.312V42.4H0V41.84C0 41.84 0.112001 41.84 0.336 41.84C0.597334 41.84 0.728001 41.84 0.728001 41.84C1.69867 41.84 2.52 41.504 3.192 40.832C3.90133 40.1227 4.27467 39.2827 4.312 38.312H4.48ZM4.48 7.288H4.312C4.27467 6.31733 3.90133 5.496 3.192 4.824C2.52 4.11467 1.69867 3.76 0.728001 3.76C0.728001 3.76 0.597334 3.76 0.336 3.76C0.112001 3.76 0 3.76 0 3.76V3.2H4.48V7.288ZM12.544 38.312H12.712C12.7493 39.2827 13.104 40.1227 13.776 40.832C14.4853 41.504 15.3253 41.84 16.296 41.84C16.296 41.84 16.408 41.84 16.632 41.84C16.856 41.84 16.9867 41.84 17.024 41.84V42.4H12.544V38.312ZM12.544 7.288V3.2H17.024V3.76C16.9867 3.76 16.856 3.76 16.632 3.76C16.408 3.76 16.296 3.76 16.296 3.76C15.3253 3.76 14.4853 4.11467 13.776 4.824C13.104 5.496 12.7493 6.31733 12.712 7.288H12.544Z" fill="black"/>
<path d="M27.0803 0.599998V45.4H17.4803V0.599998H27.0803ZM17.6723 40.728V45.4H12.5523V44.76C12.5523 44.76 12.6802 44.76 12.9362 44.76C13.2349 44.76 13.3843 44.76 13.3843 44.76C14.4936 44.76 15.4323 44.376 16.2003 43.608C17.0109 42.7973 17.4376 41.8373 17.4803 40.728H17.6723ZM17.6723 5.272H17.4803C17.4376 4.16266 17.0109 3.224 16.2003 2.456C15.4323 1.64533 14.4936 1.24 13.3843 1.24C13.3843 1.24 13.2349 1.24 12.9362 1.24C12.6802 1.24 12.5523 1.24 12.5523 1.24V0.599998H17.6723V5.272ZM26.8883 40.728H27.0803C27.1229 41.8373 27.5283 42.7973 28.2963 43.608C29.1069 44.376 30.0669 44.76 31.1763 44.76C31.1763 44.76 31.3043 44.76 31.5603 44.76C31.8163 44.76 31.9656 44.76 32.0083 44.76V45.4H26.8883V40.728ZM26.8883 5.272V0.599998H32.0083V1.24C31.9656 1.24 31.8163 1.24 31.5603 1.24C31.3043 1.24 31.1763 1.24 31.1763 1.24C30.0669 1.24 29.1069 1.64533 28.2963 2.456C27.5283 3.224 27.1229 4.16266 27.0803 5.272H26.8883Z" fill="black"/>
<path d="M40.3183 3.2V42.4H31.9183V3.2H40.3183ZM32.0863 38.312V42.4H17.024V41.84C17.024 41.84 27.7183 41.84 27.9422 41.84C28.2036 41.84 28.3343 41.84 28.3343 41.84C29.3049 41.84 30.1262 41.504 30.7982 40.832C31.5076 40.1227 31.8809 39.2827 31.9183 38.312H32.0863ZM32.0863 7.288H31.9183C31.8809 6.31733 31.5076 5.496 30.7982 4.824C30.1262 4.11467 29.3049 3.76 28.3343 3.76C28.3343 3.76 28.2036 3.76 27.9422 3.76C27.7183 3.76 17.024 3.76 17.024 3.76V3.2H32.0863V7.288ZM40.1503 38.312H40.3183C40.3556 39.2827 40.7102 40.1227 41.3822 40.832C42.0916 41.504 42.9316 41.84 43.9023 41.84C43.9023 41.84 44.0143 41.84 44.2383 41.84C44.4622 41.84 44.5929 41.84 44.6302 41.84V42.4H40.1503V38.312ZM40.1503 7.288V3.2H44.6302V3.76C44.5929 3.76 44.4622 3.76 44.2383 3.76C44.0143 3.76 43.9023 3.76 43.9023 3.76C42.9316 3.76 42.0916 4.11467 41.3822 4.824C40.7102 5.496 40.3556 6.31733 40.3183 7.288H40.1503Z" fill="black"/>
</svg>
