<svg width="137" height="63" viewBox="0 0 137 63" fill="none" xmlns="http://www.w3.org/2000/svg">
<path d="M43.328 34.688L43.904 45.696C42.9653 47.2747 41.7067 48.704 40.128 49.984C38.5493 51.264 36.5867 52.3093 34.24 53.12C31.8933 53.888 29.12 54.272 25.92 54.272C20.7147 54.2293 16.1493 53.2907 12.224 51.456C8.34133 49.5787 5.33333 46.912 3.2 43.456C1.06666 40 0 35.8187 0 30.912C0 26.1333 1.04533 22.016 3.136 18.56C5.22666 15.0613 8.21333 12.3733 12.096 10.496C16.0213 8.61867 20.6933 7.68 26.112 7.68C29.5253 7.68 32.576 8.02133 35.264 8.704C37.9947 9.38667 40.2773 10.2187 42.112 11.2L42.176 22.144H41.6C40.448 17.92 38.5707 14.912 35.968 13.12C33.3653 11.2853 30.3147 10.368 26.816 10.368C23.4027 10.368 20.48 11.2 18.048 12.864C15.616 14.528 13.7387 16.8747 12.416 19.904C11.0933 22.9333 10.432 26.56 10.432 30.784C10.432 35.008 11.0507 38.656 12.288 41.728C13.568 44.8 15.36 47.1893 17.664 48.896C20.0107 50.6027 22.7627 51.4987 25.92 51.584C29.2053 51.584 31.9787 51.0507 34.24 49.984C36.5013 48.9173 38.3147 47.1467 39.68 44.672C41.088 42.1973 42.1333 38.8693 42.816 34.688H43.328Z" fill="#1E1E1E"/>
<path d="M58.8975 14.976V53.376H49.6815V14.976H58.8975ZM49.6815 49.344V53.376H45.3935V52.736C45.3935 52.736 45.5215 52.736 45.7775 52.736C46.0335 52.736 46.1828 52.736 46.2255 52.736C47.1642 52.736 47.9535 52.416 48.5935 51.776C49.2762 51.0933 49.6388 50.2827 49.6815 49.344ZM58.8975 19.008V14.976H58.7695H63.1855V15.616C63.1428 15.616 62.9935 15.616 62.7375 15.616C62.5242 15.616 62.4175 15.616 62.4175 15.616C61.4788 15.616 60.6682 15.936 59.9855 16.576C59.3028 17.216 58.9402 18.0267 58.8975 19.008ZM49.6815 19.008C49.6388 18.0267 49.2762 17.216 48.5935 16.576C47.9108 15.936 47.1002 15.616 46.1615 15.616C46.1188 15.616 45.9695 15.616 45.7135 15.616C45.5002 15.616 45.3935 15.616 45.3935 15.616V14.976H49.8095H49.6815V19.008Z" fill="#1E1E1E"/>
<path d="M91.4135 10.56C92.1388 9.32267 93.0348 8.04267 94.1015 6.72C95.1682 5.39733 96.2775 4.16 97.4295 3.008C98.6242 1.856 99.6695 0.853335 100.566 0C101.718 0.639999 102.635 1.38667 103.318 2.24C104 3.09333 104.555 4.096 104.982 5.248C103.702 6.05867 102.293 6.848 100.757 7.616C99.2642 8.34134 97.7495 9.00267 96.2135 9.6C94.7202 10.1973 93.2695 10.6667 91.8615 11.008L91.4135 10.56Z" fill="#1E1E1E"/>
<path fill-rule="evenodd" clip-rule="evenodd" d="M97.3471 34.0966C97.2894 34.0849 97.2318 34.0736 97.1742 34.0628C96.3897 33.9143 95.6255 33.84 94.8815 33.84C95.6751 34.0668 96.497 34.1523 97.3471 34.0966Z" fill="#1E1E1E"/>
<path d="M99.1695 15.024C96.9935 14.1707 94.3695 13.7653 91.2975 13.808C88.1828 13.8507 85.4735 14.2987 83.1695 15.152C80.9082 16.0053 79.0735 17.072 77.6655 18.352L80.2895 27.44H80.9295C80.8442 23.984 81.3988 21.3387 82.5935 19.504C83.8308 17.6267 85.7508 16.624 88.3535 16.496C89.8468 16.4107 91.1482 16.6453 92.2575 17.2C93.4095 17.712 94.3268 18.48 95.0095 19.504C95.6922 20.528 96.0762 21.7653 96.1615 23.216C96.3748 25.392 95.9482 27.312 94.8815 28.976C93.8575 30.64 92.4708 31.9413 90.7215 32.88C89.0148 33.776 87.1802 34.2027 85.2175 34.16L85.0895 34.8C87.2228 34.8 89.2282 35.1627 91.1055 35.888C92.9828 36.6133 94.4975 37.7653 95.6495 39.344C96.8442 40.88 97.4415 42.928 97.4415 45.488C97.4415 47.792 96.9295 49.904 95.9055 51.824C94.8815 53.744 93.4735 55.3867 91.6815 56.752C89.8895 58.0747 87.8202 59.0773 85.4735 59.76C83.1695 60.4853 80.7162 60.8267 78.1135 60.784L77.9855 61.424C80.7162 62.3627 83.4895 62.8533 86.3055 62.896C89.1215 62.9387 91.8095 62.576 94.3695 61.808C96.9295 61.0827 99.2122 59.9947 101.217 58.544C103.223 57.0933 104.801 55.3227 105.953 53.232C107.105 51.1413 107.682 48.7947 107.682 46.192C107.682 43.9307 107.276 42.0107 106.465 40.432C105.655 38.8533 104.588 37.5947 103.266 36.656C101.943 35.6747 100.535 34.9707 99.0415 34.544C98.4666 34.358 97.9018 34.2089 97.3471 34.0966C96.497 34.1523 95.6751 34.0668 94.8815 33.84C95.6255 33.84 96.3897 33.9143 97.1742 34.0628C97.2318 34.0736 97.2894 34.0849 97.3471 34.0966C97.7767 34.0685 98.2135 34.0043 98.6575 33.904C99.9802 33.5627 101.196 32.9653 102.305 32.112C103.457 31.216 104.375 30.1067 105.057 28.784C105.74 27.4613 106.081 25.9467 106.081 24.24C106.081 22.064 105.484 20.208 104.289 18.672C103.095 17.0933 101.388 15.8773 99.1695 15.024Z" fill="#B67561"/>
<path d="M58.8975 50.816V53.376H64.4655H75.5375L78.0335 41.6H77.3935C76.8388 43.4773 76.0495 45.12 75.0255 46.528C74.0015 47.8933 72.7642 48.96 71.3135 49.728C69.9055 50.4533 68.2842 50.816 66.4495 50.816H58.8975Z" fill="#1E1E1E"/>
<path fill-rule="evenodd" clip-rule="evenodd" d="M124.466 14.272C123.272 14.1867 122.248 14.144 121.395 14.144C119.261 14.144 117.363 14.528 115.699 15.296C114.035 16.064 112.69 17.1733 111.666 18.624C110.685 20.0747 110.088 21.824 109.874 23.872C109.618 26.048 109.96 28.0533 110.898 29.888C111.88 31.7227 113.437 33.1947 115.57 34.304L124.658 40.064C126.365 40.96 127.581 41.8773 128.306 42.816C129.074 43.712 129.458 44.736 129.458 45.888C129.458 47.424 128.84 48.768 127.602 49.92C126.365 51.072 124.509 51.648 122.035 51.648C119.773 51.648 117.832 51.1787 116.21 50.24C114.589 49.2587 113.352 47.9573 112.498 46.336C111.688 44.7147 111.346 42.944 111.474 41.024H110.962C110.45 41.8347 110.024 42.8587 109.682 44.096C109.341 45.2907 109.149 46.5067 109.106 47.744C109.064 48.9387 109.213 49.9627 109.554 50.816C110.152 51.456 111.005 52.032 112.115 52.544C113.267 53.056 114.632 53.4613 116.21 53.76C117.789 54.0587 119.496 54.208 121.33 54.208C124.317 54.208 126.898 53.76 129.074 52.864C131.293 51.9253 133.021 50.5813 134.258 48.832C135.538 47.0827 136.242 45.0133 136.37 42.624C136.499 40.32 136.072 38.3573 135.09 36.736C134.109 35.1147 132.765 33.8773 131.059 33.024L121.01 26.816C120.2 26.3467 119.453 25.8773 118.77 25.408C118.13 24.9387 117.618 24.4053 117.234 23.808C116.893 23.168 116.765 22.464 116.85 21.696C116.936 20.2027 117.597 19.008 118.834 18.112C120.114 17.216 121.778 16.768 123.826 16.768C126.386 16.768 128.349 17.344 129.714 18.496C131.08 19.648 131.762 21.2053 131.762 23.168H132.339L133.171 15.36C133.159 15.3558 133.148 15.3515 133.136 15.3473L133.171 14.72H129.522C129.079 14.67 128.609 14.6273 128.115 14.592C126.92 14.464 125.704 14.3573 124.466 14.272ZM133.106 15.872L133.136 15.3473C133.102 15.3355 133.067 15.3238 133.029 15.312C132.664 15.2 132.072 15.088 131.25 14.976C130.726 14.876 130.15 14.7907 129.522 14.72H126.258V15.872H133.106Z" fill="#1E1E1E"/>
<path d="M126.258 15.872H133.106L133.136 15.3473C133.102 15.3355 133.067 15.3238 133.029 15.312C132.664 15.2 132.072 15.088 131.25 14.976C130.726 14.876 130.15 14.7907 129.522 14.72H126.258V15.872Z" fill="#1E1E1E"/>
</svg>
