<svg width="22" height="20" viewBox="0 0 22 20" fill="none" xmlns="http://www.w3.org/2000/svg">
<path d="M5.15288 8.91796L5.14923 8.91143C4.94608 8.54867 4.89459 8.19377 5.01597 7.85602C5.11853 7.57062 5.32902 7.36034 5.45761 7.23187C5.4609 7.22858 5.46414 7.22534 5.46733 7.22216C5.61106 7.07842 5.77402 6.88127 5.94994 6.66843C6.04113 6.55812 6.13579 6.44359 6.23307 6.3301C6.42639 6.10456 6.51039 5.93595 6.66063 5.63438C6.67247 5.61062 6.68471 5.58605 6.69746 5.56055C6.74207 5.46386 6.74782 5.39111 6.7414 5.3302C6.73409 5.26075 6.70813 5.18237 6.65769 5.08148C6.5174 4.80091 5.43898 2.16763 5.01561 1.10934C4.82556 0.654459 4.67243 0.557547 4.62259 0.533597C4.56746 0.507104 4.54331 0.506989 4.46907 0.506636C4.42455 0.506424 4.362 0.506127 4.26395 0.5H3.25285C3.00615 0.5 2.59359 0.585419 2.21182 0.998219C2.17508 1.03986 2.13389 1.08512 2.08915 1.13429C1.55126 1.72533 0.5 2.88047 0.5 5.09328C0.5 6.28604 0.938116 7.48811 1.43019 8.45672C1.91344 9.40796 2.42732 10.093 2.55737 10.2663L2.56143 10.2718L2.56576 10.2775L2.56992 10.2834C2.58188 10.3004 2.59998 10.3268 2.62412 10.362C3.14571 11.1228 6.48224 15.9895 11.4118 18.1164L11.4154 18.1179C12.6534 18.6635 13.6175 18.978 14.3773 19.2101L14.3845 19.2123L14.3845 19.2124C15.5441 19.5858 16.6136 19.5307 17.499 19.4073C17.9182 19.3457 18.6356 19.0625 19.3109 18.6284C19.9994 18.1858 20.5138 17.6694 20.6708 17.2141L20.6733 17.2068L20.6734 17.2068C20.8833 16.6269 20.986 16.0976 21.0198 15.6955C21.0367 15.4938 21.0355 15.3323 21.0249 15.2175C21.0192 15.1569 21.012 15.1215 21.0082 15.1048C20.9899 15.0869 20.9477 15.0537 20.8497 15.0016C20.7593 14.9535 20.6636 14.9095 20.541 14.8531C20.4514 14.8119 20.3475 14.7641 20.2209 14.7034C20.0804 14.6359 19.8115 14.5049 19.4805 14.3436C18.5093 13.8705 17.0041 13.1371 16.6432 12.9868C16.5276 12.9468 16.4411 12.9193 16.3671 12.9027C16.2923 12.8858 16.251 12.8852 16.2285 12.8877C16.2281 12.8878 16.2276 12.8878 16.227 12.8878C16.2143 12.8887 16.1529 12.893 16.0327 13.0615C15.6493 13.6239 14.6374 14.8285 14.3339 15.1758C14.1341 15.4164 13.8732 15.6126 13.5211 15.6534C13.1923 15.6916 12.873 15.5821 12.5745 15.4279C12.505 15.3948 12.4116 15.3548 12.297 15.3056C11.5715 14.9946 9.99284 14.3179 8.20592 12.7211L5.15288 8.91796ZM5.15288 8.91796L5.15673 8.92437M5.15288 8.91796L5.15673 8.92437M5.15673 8.92437C5.48117 9.46511 6.56185 11.2547 8.20556 12.7208L5.15673 8.92437Z" fill="#1E1E1E" stroke="#1E1E1E"/>
</svg>
